<?xml version="1.0" encoding="UTF-8"?>
<!DOCTYPE svg PUBLIC "-//W3C//DTD SVG 1.1//EN" "http://www.w3.org/Graphics/SVG/1.1/DTD/svg11.dtd">
<svg version="1.1"
    xmlns="http://www.w3.org/2000/svg" 
    xmlns:xlink="http://www.w3.org/1999/xlink" 
    x="0" y="0" width="30" height="30" viewBox="220, 20, 210, 180">
    <defs>
        <linearGradient id="Gradient_1" gradientUnits="userSpaceOnUse" x1="367.191" y1="127.59" x2="378.525" y2="200.257">
            <stop offset="0" stop-color="#DB3C33"/>
            <stop offset="0.495" stop-color="#DB3C33"/>
            <stop offset="1" stop-color="#F1C486"/>
        </linearGradient>
        <linearGradient id="Gradient_2" gradientUnits="userSpaceOnUse" x1="248.985" y1="168.901" x2="276.319" y2="100.234">
            <stop offset="0" stop-color="#F1C486"/>
            <stop offset="0.505" stop-color="#DB3C33"/>
            <stop offset="1" stop-color="#DB3C33"/>
        </linearGradient>
    </defs>
  <g id="Layer_1">
    <g class="cherry" style="display: '';">
        <path d="M399.338,130.32 C390.449,122.73 378.098,120.89 368.019,125.86 L367.769,125.89 C368.466,130.762 369.118,134.588 369.689,136.86 C368.143,138.389 366.195,138.707 364.162,138.772 C364.071,138.072 363.577,134.268 362.838,128.36 L362.779,128.37 C353.979,129.22 343.979,130.38 337.819,137.31 C330.909,145.08 330.539,159.12 333.128,168.48 C337.899,185.76 355.019,201.52 374.319,200.3 C404.348,198.4 427.539,154.36 399.338,130.32 z" fill="url(#Gradient_1)"/>
        <path d="M366.652,135.207 C366.652,135.207 358.319,130.79 357.319,134.707 C356.319,138.624 362.656,140.332 367.319,138.79 C370.736,137.66 377.902,135.207 375.985,131.374 C374.069,127.54 367.726,132.395 366.652,135.207" fill="#B3292D"/>
        <path d="M304.329,126.42 C303.048,114.92 295.468,105.2 284.888,101.83 L284.848,101.79 C279.423,107.193 275.549,111.171 273.899,112.877 C273.974,112.799 274.039,112.731 274.124,112.644 C272.45,111.906 271.01,110.485 270.195,108.619 C273.012,105.579 275.835,102.593 278.668,99.68 C271.758,94.35 263.779,88.56 254.708,89.37 C244.348,90.3 234.458,100.28 229.939,108.87 C221.579,124.74 223.258,147.95 238.159,160.27 C261.338,179.45 308.399,163.25 304.329,126.42 z" fill="url(#Gradient_2)"/>
        <path d="M271.694,111.457 C271.694,111.457 265.506,102.603 268.881,101.103 C271.878,99.77 274.777,105.29 274.86,108.29 C274.86,108.29 284.694,109.353 282.631,112.478 C279.936,116.561 272.985,112.54 271.694,111.457" fill="#B3292D"/>
        <path d="M430.888,60.16 C412.758,42.54 386.588,10.78 358.809,34.27 C357.128,33.57 355.279,33.53 353.588,34.23 L353.309,34.36 C353.309,34.36 316.109,61.15 278.668,99.68 C275.835,102.593 273.011,105.579 270.195,108.619 C271.01,110.485 272.45,111.906 274.124,112.644 C275.883,110.828 279.652,106.965 284.848,101.79 C300.468,86.23 328.909,58.95 353.729,40.7 C355.508,68.22 360.439,109.23 362.838,128.36 C363.577,134.268 364.071,138.072 364.162,138.772 C366.195,138.707 368.143,138.389 369.689,136.86 C369.118,134.588 368.466,130.761 367.769,125.89 C363.939,98.94 358.809,40.36 358.809,40.36 L359.319,40.36 C368.899,67.62 410.729,67.2 430.888,60.16" fill="#66B445"/>
        <path d="M250.569,112.04 C250.569,112.04 242.319,100.04 254.569,97.415 C266.819,94.79 255.569,108.915 264.319,114.915 C273.069,120.915 262.108,126.857 250.569,112.04" fill="#EEAA5C"/>
        <path d="M353.402,146.457 C351.777,139.582 343.569,134.29 342.944,145.124 C342.307,156.154 357.863,162.104 364.971,155.156 C368.68,151.531 355.639,155.92 353.402,146.457" fill="#EEAA5C"/>
        <path d="M368.444,38.79 C370.733,38.007 373.196,37.91 375.606,37.908 C378.022,37.973 380.437,38.223 382.809,38.671 C387.556,39.56 392.156,41.063 396.566,42.932 C400.978,44.806 405.205,47.062 409.227,49.616 C413.238,52.19 417.079,55.016 420.569,58.29 C416.165,56.42 411.949,54.348 407.708,52.37 C403.481,50.373 399.26,48.428 395.001,46.613 C390.741,44.802 386.442,43.118 382.047,41.712 C379.85,41.015 377.634,40.348 375.373,39.847 C373.113,39.321 370.825,38.888 368.444,38.79" fill="#449144"/>
    </g>
  </g>
</svg>
